<?xml version="1.0" encoding="iso-8859-1"?>

<svg version="1.1" id="Capa_1" xmlns="http://www.w3.org/2000/svg"  x="0px" y="0px"
     width="100%" height="100%" viewBox="0 0 27 27" fill="#64cfe1" style="enable-background:new 0 0 27 27;" xml:space="preserve">
    <title>Issuu</title>
    <path d="M13.5 6.5a6.78 6.78 0 1 0-.13 13.56 6.78 6.78 0 0 0 .12-13.56Zm-.1 10.22a3.44 3.44 0 1 1 .06-6.86 3.44 3.44 0 0 1-.07 6.85">
    </path>
    <path d="M13.33 0H1.11A1.11 1.11 0 0 0 0 1.1v12.23A13.33 13.33 0 1 0 13.33 0ZM4.17 13.15a9.26 9.26 0 1 1 18.52.18 9.26 9.26 0 0 1-18.52-.18Z">
    </path>
</svg>